<?xml version="1.0" encoding="UTF-8" standalone="no"?>
<svg
   xmlns:dc="http://purl.org/dc/elements/1.1/"
   xmlns:cc="http://creativecommons.org/ns#"
   xmlns:rdf="http://www.w3.org/1999/02/22-rdf-syntax-ns#"
   xmlns:svg="http://www.w3.org/2000/svg"
   xmlns="http://www.w3.org/2000/svg"
   xmlns:sodipodi="http://sodipodi.sourceforge.net/DTD/sodipodi-0.dtd"
   xmlns:inkscape="http://www.inkscape.org/namespaces/inkscape"
   width="500"
   height="500"
   viewBox="0 0 500 500"
   version="1.1"
   id="svg4569"
   sodipodi:docname="project-logo.svg"
   inkscape:version="0.92.1 r15371"
   inkscape:export-filename="/home/vitex/Projects/VitexSoftware/mbank/project-logo.png"
   inkscape:export-xdpi="92.598381"
   inkscape:export-ydpi="92.598381">
  <metadata
     id="metadata4573">
    <rdf:RDF>
      <cc:Work
         rdf:about="">
        <dc:format>image/svg+xml</dc:format>
        <dc:type
           rdf:resource="http://purl.org/dc/dcmitype/StillImage" />
        <dc:title>logo mass</dc:title>
      </cc:Work>
    </rdf:RDF>
  </metadata>
  <sodipodi:namedview
     pagecolor="#ffffff"
     bordercolor="#666666"
     borderopacity="1"
     objecttolerance="10"
     gridtolerance="10"
     guidetolerance="10"
     inkscape:pageopacity="0"
     inkscape:pageshadow="2"
     inkscape:window-width="1600"
     inkscape:window-height="846"
     id="namedview4571"
     showgrid="false"
     inkscape:zoom="0.5"
     inkscape:cx="250"
     inkscape:cy="241.48278"
     inkscape:window-x="0"
     inkscape:window-y="30"
     inkscape:window-maximized="1"
     inkscape:current-layer="svg4569" />
  <!-- Generator: Sketch 49.3 (51167) - http://www.bohemiancoding.com/sketch -->
  <title
     id="title4549">logo mass</title>
  <desc
     id="desc4551">Created with Sketch.</desc>
  <defs
     id="defs4553">
    <clipPath
       id="clipPath3444">
      <path
         inkscape:connector-curvature="0"
         id="path3446"
         d="M 11.52,162 C 11.52,81.677 135.307,16.56 288,16.56 440.693,16.56 564.48,81.678 564.48,162 564.48,242.322 440.693,307.44 288,307.44 135.307,307.44 11.52,242.32 11.52,162" />
    </clipPath>
    <radialGradient
       id="radialGradient3452"
       cx="0"
       cy="0"
       r="1"
       fx="0"
       fy="0"
       gradientTransform="matrix(363.06,0,0,-363.06,177.52,256.31)"
       gradientUnits="userSpaceOnUse"
       spreadMethod="pad">
      <stop
         id="stop3454"
         offset="0"
         stop-color="#aeb2d5" />
      <stop
         id="stop3456"
         offset="0.3"
         stop-color="#aeb2d5" />
      <stop
         id="stop3458"
         offset="0.75"
         stop-color="#484c89" />
      <stop
         id="stop3460"
         offset="1"
         stop-color="#484c89" />
    </radialGradient>
    <clipPath
       id="clipPath3468">
      <path
         inkscape:connector-curvature="0"
         id="path3470"
         d="M 0,324 H 576 V 0 H 0 Z" />
    </clipPath>
  </defs>
  <g
     id="g5218"
     transform="matrix(5.4847714,0,0,5.4847714,-100.4326,-2344.3254)">
    <g
       transform="matrix(0.80426221,0,0,0.80426221,13.396074,454.11598)"
       id="g5139">
      <g
         transform="matrix(0.16159494,0,0,0.16159494,5.5488941,-5.7690245)"
         id="g5311">
        <g
           transform="matrix(1.25,0,0,-1.25,-4.4,394.3)"
           id="g3440">
          <g
             id="g3442"
             clip-path="url(#clipPath3444)">
            <g
               id="g3448">
              <g
                 id="g3450">
                <path
                   id="path3462"
                   d="M 11.52,162 C 11.52,81.677 135.307,16.56 288,16.56 440.693,16.56 564.48,81.678 564.48,162 564.48,242.322 440.693,307.44 288,307.44 135.307,307.44 11.52,242.32 11.52,162"
                   style="fill:url(#radialGradient3452)"
                   inkscape:connector-curvature="0" />
              </g>
            </g>
          </g>
        </g>
        <g
           transform="matrix(1.25,0,0,-1.25,-4.4,394.3)"
           id="g3464">
          <g
             id="g3466"
             clip-path="url(#clipPath3468)">
            <g
               id="g3472"
               transform="translate(288,27.36)">
              <path
                 id="path3474"
                 d="M 0,0 C 146.73,0 265.68,60.28 265.68,134.64 265.68,209 146.73,269.283 0,269.283 c -146.73,0 -265.68,-60.282 -265.68,-134.64 C -265.68,60.28 -146.73,0 0,0"
                 inkscape:connector-curvature="0"
                 style="fill:#777bb3" />
            </g>
          </g>
        </g>
      </g>
    </g>
    <g
       transform="matrix(0.43045926,0,0,0.43045926,36.824764,464.15868)"
       id="g5413">
      <g
         id="g5396">
        <g
           style="fill:none;fill-rule:evenodd;stroke:none;stroke-width:1"
           id="Page-1">
          <g
             transform="translate(-24,-29)"
             id="mBank_website_v7_1366">
            <g
               id="navi">
              <g
                 transform="translate(24,29)"
                 id="navi-/-logo-mass">
                <g
                   id="logo-mass">
                  <g
                     id="mBank-mass-logo">
                    <g
                       id="pasiak">
                      <polygon
                         style="fill:#18a035"
                         points="98.19092,0.051232394 98.19092,49.956866 129.917,49.956866 129.917,0.051232394 "
                         id="Fill-3" />
                      <polygon
                         style="fill:#0077bd"
                         points="94.562809,0.051232394 94.562809,49.956866 98.19092,49.956866 98.19092,0.051232394 "
                         id="Fill-8" />
                      <polygon
                         style="fill:#cc0b0a"
                         points="73.198437,0.051232394 73.198437,49.956866 94.562809,49.956866 94.562809,0.051232394 "
                         id="Fill-4" />
                      <polygon
                         style="fill:#f39100"
                         points="42.0943,0.051232394 42.0943,49.956866 73.198437,49.956866 73.198437,0.051232394 "
                         id="Fill-5" />
                      <polygon
                         style="fill:#201c17"
                         points="36.776979,0.051232394 36.776979,49.956866 42.0943,49.956866 42.0943,0.051232394 "
                         id="Fill-7" />
                      <polygon
                         style="fill:#e41e0a"
                         points="0.13893322,0.051232394 0.13893322,49.956866 36.776979,49.956866 36.776979,0.051232394 "
                         id="Fill-6" />
                    </g>
                    <path
                       style="fill:#fffffe"
                       inkscape:connector-curvature="0"
                       id="name"
                       d="m 49.652866,23.947183 h 2.119568 c 1.420323,0 2.218705,-0.206866 2.756125,-0.7125 0.466632,-0.435739 0.674768,-1.087676 0.674768,-2.113204 0,-0.603697 -0.128016,-1.436092 -0.739216,-1.975352 -0.515233,-0.483275 -1.334217,-0.681338 -2.826384,-0.681338 h -1.984861 z m 0,8.975528 h 2.591483 c 2.916365,0 4.002298,-0.821126 4.002298,-3.027641 0,-1.03257 -0.253566,-1.755986 -0.772849,-2.210563 -0.662794,-0.563204 -1.557848,-0.782923 -3.196697,-0.782923 h -2.624235 z m -4.871291,3.525705 V 18.464789 h -2.050542 v -3.492606 h 9.715112 c 3.047022,0 4.790995,0.445423 6.016214,1.537676 1.077128,0.969542 1.646068,2.320599 1.646068,3.906338 0,1.939965 -0.907028,3.538733 -2.488824,4.386092 l -0.107061,0.05739 0.116746,0.03398 c 2.457832,0.729753 3.756831,2.540141 3.756831,5.23662 0,2.586267 -0.995776,4.340669 -3.046141,5.366549 -1.285793,0.658275 -3.031703,0.951585 -5.658932,0.951585 z m 47.399999,0 V 26.39912 c 0,-1.019014 -0.08593,-1.727817 -0.519282,-2.327817 -0.432648,-0.567254 -1.138055,-0.866373 -2.037159,-0.866373 -0.934674,0 -1.697838,0.346302 -2.208845,1.003169 -0.539709,0.709331 -0.65082,1.631162 -0.65082,2.796126 v 9.444191 H 82.095093 V 23.305458 h -1.950348 v -3.358627 h 4.773563 l 0.768799,1.982922 0.05283,-0.06585 c 1.171159,-1.431338 2.992435,-2.219014 5.129612,-2.219014 1.951756,0 3.521754,0.556514 4.542711,1.609683 0.994191,1.059684 1.438461,2.428522 1.438461,4.438557 V 36.448416 Z M 113.25734,36.65 c -1.78307,0 -2.87992,-0.683099 -3.91831,-2.435563 l -2.9956,-5.026937 h -1.42525 v 7.260916 h -4.6695 V 16.616373 H 98.298686 V 13.25757 h 6.619494 v 12.438029 h 1.62564 l 3.32858,-5.748768 h 4.66721 l -4.29337,7.359155 3.19652,5.29419 c 0.40694,0.676408 0.71298,0.893486 1.26061,0.893486 0.41909,0 0.8977,-0.160211 1.25251,-0.41831 l 0.16852,-0.122359 -0.14756,2.908979 -0.0366,0.02799 C 115.32672,36.359155 114.29855,36.65 113.25734,36.65 Z m -74.039609,0.006 c -1.378943,0 -2.368028,-0.398768 -2.938728,-1.183979 C 35.862731,34.895423 35.65213,33.99331 35.65213,32.791373 V 26.39912 c 0,-1.038381 -0.03381,-1.713557 -0.48565,-2.327817 -0.422434,-0.551233 -1.140168,-0.866373 -1.97183,-0.866373 -0.858251,0 -1.62617,0.353345 -2.106185,0.969542 -0.463639,0.617077 -0.651701,1.417429 -0.651701,2.762324 v 9.51162 H 25.766565 V 26.39912 c 0,-1.039085 -0.03275,-1.714261 -0.485121,-2.327817 -0.422083,-0.551233 -1.13964,-0.866373 -1.969894,-0.866373 -0.860541,0 -1.628107,0.353345 -2.10689,0.969542 -0.462934,0.617077 -0.651876,1.417077 -0.651876,2.762324 v 9.51162 H 15.882585 V 23.305458 h -1.951052 v -3.358627 h 4.774619 l 0.764396,1.974472 0.05459,-0.06937 c 1.078361,-1.403169 2.923408,-2.207043 5.063755,-2.207043 2.252338,0 3.894004,0.705282 4.879391,2.097007 l 0.03627,0.05229 0.04191,-0.04877 c 0.665436,-0.784683 2.188419,-2.100528 4.927463,-2.100528 2.216769,0 3.95405,0.742958 4.887668,2.092958 0.672479,0.954754 0.958621,2.148063 0.958621,3.989437 v 6.862676 c 0,0.801408 0.360452,0.908979 0.712627,0.908979 0.37225,0 0.961263,-0.22412 1.217999,-0.416374 l 0.169749,-0.127816 -0.148266,2.814964 -0.04085,0.02799 c -0.605565,0.414789 -1.715446,0.858275 -3.013741,0.858275 z m 31.473568,-8.275352 c -1.753305,0 -2.758238,0.969014 -2.758238,2.65669 0,1.668134 0.894702,2.624824 2.455015,2.624824 0.755769,0 1.44075,-0.270775 1.877448,-0.741726 0.422258,-0.454929 0.646242,-1.141021 0.646242,-1.983098 v -2.184331 l -0.03275,-0.01162 c -0.483889,-0.17412 -1.37454,-0.360739 -2.187714,-0.360739 z m -1.580035,8.37007 c -3.628287,0 -5.88221,-2.111619 -5.88221,-5.510387 0,-3.514965 2.42596,-5.6125 6.487776,-5.6125 1.021661,0 2.221171,0.182746 3.129255,0.476761 l 0.06568,0.02077 v -0.297535 c 0,-1.150352 -0.160064,-1.739789 -0.61437,-2.253697 -0.491813,-0.557395 -1.382817,-0.840669 -2.647832,-0.840669 -1.600813,0 -3.315908,0.426056 -4.829734,1.199824 l -0.146153,0.07342 v -3.25088 l 0.05952,-0.02641 c 1.531787,-0.699824 3.52915,-1.084507 5.623186,-1.084507 2.628813,0 4.509254,0.569367 5.748736,1.741021 1.008102,0.940141 1.476671,2.287324 1.476671,4.240493 v 6.957923 c 0,0.645951 0.195458,0.909331 0.673536,0.909331 0.374363,0 1.002467,-0.229577 1.252336,-0.417254 l 0.172038,-0.129401 -0.185597,2.817078 -0.03715,0.02711 C 78.700298,36.320775 77.531075,36.65 76.407107,36.65 c -1.399897,0 -2.454663,-0.562676 -2.894002,-1.543134 l -0.03117,-0.06901 -0.05195,0.05599 c -0.922524,1.037676 -2.537424,1.656866 -4.318728,1.656866 z" />
                  </g>
                </g>
              </g>
            </g>
          </g>
        </g>
      </g>
    </g>
  </g>
</svg>
